<svg width="54" height="54" viewBox="0 0 54 54" fill="none" xmlns="http://www.w3.org/2000/svg">
<g clip-path="url(#clip0_6_21)">
<path fill-rule="evenodd" clip-rule="evenodd" d="M23.5077 53.1059C10.2752 51.5821 0 40.3157 0 26.6409C0 11.9271 11.896 0 26.5714 0C41.2468 0 53.1429 11.9271 53.1429 26.6409C53.1429 40.3796 44.4195 39.25 36.9715 38.283C32.6722 37.7262 28.8008 37.2253 27.2676 39.663C26.218 41.3307 27.3526 43.4087 28.7423 44.802C29.1551 45.2159 29.4826 45.7072 29.706 46.248C29.9294 46.7887 30.0444 47.3683 30.0444 47.9536C30.0444 48.5389 29.9294 49.1185 29.706 49.6592C29.4826 50.2 29.1551 50.6913 28.7423 51.1052C27.3526 52.4985 25.4607 53.3324 23.5077 53.1059ZM24.1401 13.3204C24.1401 14.3803 23.7202 15.3967 22.9728 16.1461C22.2253 16.8956 21.2115 17.3166 20.1544 17.3166C19.0973 17.3166 18.0836 16.8956 17.3361 16.1461C16.5886 15.3967 16.1687 14.3803 16.1687 13.3204C16.1687 12.2606 16.5886 11.2442 17.3361 10.4948C18.0836 9.74533 19.0973 9.32431 20.1544 9.32431C21.2115 9.32431 22.2253 9.74533 22.9728 10.4948C23.7202 11.2442 24.1401 12.2606 24.1401 13.3204ZM11.9571 29.305C13.0142 29.305 14.028 28.884 14.7755 28.1345C15.5229 27.3851 15.9429 26.3687 15.9429 25.3088C15.9429 24.249 15.5229 23.2326 14.7755 22.4832C14.028 21.7337 13.0142 21.3127 11.9571 21.3127C10.9001 21.3127 9.88628 21.7337 9.13882 22.4832C8.39135 23.2326 7.97143 24.249 7.97143 25.3088C7.97143 26.3687 8.39135 27.3851 9.13882 28.1345C9.88628 28.884 10.9001 29.305 11.9571 29.305ZM41.1857 29.305C42.2428 29.305 43.2566 28.884 44.004 28.1345C44.7515 27.3851 45.1714 26.3687 45.1714 25.3088C45.1714 24.249 44.7515 23.2326 44.004 22.4832C43.2566 21.7337 42.2428 21.3127 41.1857 21.3127C40.1286 21.3127 39.1149 21.7337 38.3674 22.4832C37.6199 23.2326 37.2 24.249 37.2 25.3088C37.2 26.3687 37.6199 27.3851 38.3674 28.1345C39.1149 28.884 40.1286 29.305 41.1857 29.305ZM33.2143 17.3166C33.7377 17.3166 34.256 17.2132 34.7396 17.0124C35.2231 16.8116 35.6625 16.5172 36.0326 16.1461C36.4027 15.7751 36.6963 15.3345 36.8966 14.8497C37.0969 14.3649 37.2 13.8452 37.2 13.3204C37.2 12.7957 37.0969 12.276 36.8966 11.7912C36.6963 11.3064 36.4027 10.8658 36.0326 10.4948C35.6625 10.1237 35.2231 9.82932 34.7396 9.6285C34.256 9.42767 33.7377 9.32431 33.2143 9.32431C32.1572 9.32431 31.1434 9.74533 30.396 10.4948C29.6485 11.2442 29.2286 12.2606 29.2286 13.3204C29.2286 14.3803 29.6485 15.3967 30.396 16.1461C31.1434 16.8956 32.1572 17.3166 33.2143 17.3166Z" fill="url(#paint0_linear_6_21)"/>
</g>
<defs>
<linearGradient id="paint0_linear_6_21" x1="26.5714" y1="0" x2="26.5714" y2="53.1429" gradientUnits="userSpaceOnUse">
<stop stop-color="#9195FF"/>
<stop offset="0.55" stop-color="#5E62CD"/>
<stop offset="1" stop-color="#2A2E99"/>
</linearGradient>
<clipPath id="clip0_6_21">
<rect width="54" height="54" fill="white"/>
</clipPath>
</defs>
</svg>
