<svg width="55" height="55" viewBox="0 0 55 55" fill="none" xmlns="http://www.w3.org/2000/svg">
<path d="M55 25.4643V49.9076C55 51.2582 54.3702 52.5535 53.249 53.5085C52.1279 54.4635 50.6073 55 49.0217 55H5.97826C4.39273 55 2.87213 54.4635 1.75099 53.5085C0.629851 52.5535 0 51.2582 0 49.9076V25.4643C0 24.1137 0.629851 22.8184 1.75099 21.8634C2.87213 20.9084 4.39273 20.3719 5.97826 20.3719H11.9565C12.9078 20.3719 13.8202 20.6938 14.4929 21.2668C15.1656 21.8398 15.5435 22.617 15.5435 23.4273C15.5435 24.2377 15.1656 25.0148 14.4929 25.5878C13.8202 26.1608 12.9078 26.4827 11.9565 26.4827H7.17391V48.8892H47.8261V26.4827H43.0435C42.0922 26.4827 41.1798 26.1608 40.5071 25.5878C39.8344 25.0148 39.4565 24.2377 39.4565 23.4273C39.4565 22.617 39.8344 21.8398 40.5071 21.2668C41.1798 20.6938 42.0922 20.3719 43.0435 20.3719H49.0217C50.6073 20.3719 52.1279 20.9084 53.249 21.8634C54.3702 22.8184 55 24.1137 55 25.4643ZM18.0812 15.4043L23.913 10.4418V31.5751C23.913 32.3854 24.291 33.1626 24.9636 33.7356C25.6363 34.3086 26.5487 34.6305 27.5 34.6305C28.4513 34.6305 29.3637 34.3086 30.0364 33.7356C30.709 33.1626 31.087 32.3854 31.087 31.5751V10.4418L36.9188 15.4119C37.2524 15.6961 37.6485 15.9216 38.0845 16.0754C38.5204 16.2292 38.9876 16.3084 39.4595 16.3084C39.9314 16.3084 40.3986 16.2292 40.8346 16.0754C41.2705 15.9216 41.6666 15.6961 42.0003 15.4119C42.3339 15.1277 42.5986 14.7903 42.7792 14.419C42.9597 14.0476 43.0527 13.6496 43.0527 13.2477C43.0527 12.8457 42.9597 12.4477 42.7792 12.0764C42.5986 11.705 42.3339 11.3676 42.0003 11.0834L30.0438 0.898666C29.7105 0.61382 29.3145 0.387809 28.8785 0.233596C28.4425 0.0793827 27.9751 0 27.503 0C27.0309 0 26.5634 0.0793827 26.1274 0.233596C25.6914 0.387809 25.2955 0.61382 24.9622 0.898666L13.0057 11.0834C12.672 11.3676 12.4074 11.705 12.2268 12.0764C12.0462 12.4477 11.9533 12.8457 11.9533 13.2477C11.9533 14.0594 12.3319 14.8379 13.0057 15.4119C13.6796 15.9859 14.5935 16.3084 15.5465 16.3084C16.4994 16.3084 17.4134 15.9859 18.0872 15.4119L18.0812 15.4043Z" fill="url(#paint0_linear_6_20)"/>
<defs>
<linearGradient id="paint0_linear_6_20" x1="27.5" y1="0" x2="27.5" y2="55" gradientUnits="userSpaceOnUse">
<stop stop-color="#9195FF"/>
<stop offset="0.55" stop-color="#5E62CD"/>
<stop offset="1" stop-color="#2A2E99"/>
</linearGradient>
</defs>
</svg>
